<svg xmlns="http://www.w3.org/2000/svg" viewBox="0 0 160 120" role="img" aria-labelledby="title desc">
  <title id="title">Argus</title>
  <desc id="desc">Глаз, точки данных и линия статистической закономерности</desc>
  <defs>
    <linearGradient id="orbit" x1="0" y1="1" x2="1" y2="0">
      <stop offset="0" stop-color="#7799c8"/>
      <stop offset="1" stop-color="#b4c8e5"/>
    </linearGradient>
    <linearGradient id="eye" x1="0" y1="1" x2="1" y2="0">
      <stop offset="0" stop-color="#071d47"/>
      <stop offset="1" stop-color="#00133b"/>
    </linearGradient>
  </defs>
  <path d="M17 62C42 31 86 27 122 45C85 34 50 40 27 63C33 72 42 80 54 87C38 82 25 73 17 62Z" fill="url(#eye)"/>
  <path d="M37 87L116 49" fill="none" stroke="#1761c5" stroke-width="4" stroke-linecap="round"/>
  <ellipse cx="83" cy="61" rx="64" ry="34" transform="rotate(-38 83 61)" fill="none" stroke="url(#orbit)" stroke-width="2.6"/>
  <circle cx="29" cy="99" r="7" fill="#7899c7"/>
  <circle cx="137" cy="18" r="7" fill="#1761c5"/>
  <circle cx="55" cy="70" r="4" fill="#76a0d8"/>
  <circle cx="68" cy="62" r="3.5" fill="#0a2d66"/>
  <circle cx="80" cy="54" r="4" fill="#5d8fd1"/>
  <circle cx="93" cy="69" r="4" fill="#071d47"/>
  <circle cx="105" cy="42" r="4.5" fill="#1761c5"/>
  <circle cx="76" cy="82" r="4" fill="#071d47"/>
  <circle cx="88" cy="77" r="4" fill="#7ea2d3"/>
</svg>
